<svg width="23.999999999999996" height="23.999999999999996" xmlns="http://www.w3.org/2000/svg">

 <g>
  <title>background</title>
  <rect fill="none" id="canvas_background" height="402" width="582" y="-1" x="-1"/>
 </g>
 <g>
  <title>Layer 1</title>
  <path fill="#8617bb" id="svg_2" d="m16,7c0,-2.2 -1.8,-4 -4,-4l0,1c1.7,0 3,1.3 3,3l1,0z"/>
  <polygon fill="#8617bb" id="svg_3" points="9,12 5,19 8,19 7,24 11,17 8,17  "/>
  <path fill="#8617bb" stroke="#8617bb" id="svg_4" d="m19,5c-0.1,0 -0.2,0 -0.3,0c-0.9,-2.9 -3.5,-5 -6.7,-5c-2.4,0 -4.5,1.2 -5.8,3c0,0 -0.1,0 -0.2,0c-3.3,0 -6,2.7 -6,6s2.7,6 6,6l0,0l1.2,-2l-1.2,0c-2.2,0 -4,-1.8 -4,-4c0,-0.3 0,-0.5 0.1,-0.8c0,-0.1 0,-0.2 0.1,-0.2c0,-0.2 0.1,-0.3 0.1,-0.5c0,-0.1 0.1,-0.2 0.1,-0.3c0.1,-0.1 0.1,-0.2 0.2,-0.3c0.1,-0.1 0.1,-0.2 0.2,-0.3c0.1,-0.1 0.2,-0.2 0.3,-0.3c0,-0.1 0.1,-0.2 0.2,-0.3c0.1,0 0.2,-0.1 0.3,-0.2c0.1,-0.1 0.2,-0.2 0.3,-0.2c0.1,0 0.2,-0.1 0.2,-0.1c0.1,-0.1 0.3,-0.1 0.4,-0.2c0.1,0 0.1,0 0.2,-0.1c0.5,-0.1 0.9,-0.2 1.3,-0.2c0.5,0 0.9,0.1 1.3,0.2c0.7,-1.7 2.2,-3 4.1,-3.2c0,0 0.1,0 0.1,0c0.2,0 0.3,0 0.5,0c1.1,0 2.1,0.4 2.9,1c0,0 0,0 0,0c0.9,0.6 1.5,1.5 1.8,2.6c0.1,0.2 0.1,0.4 0.2,0.6c0.1,0.3 0.1,0.5 0.1,0.8l2,0c1.7,0 3,1.3 3,3s-1.3,3 -3,3l-9,0l-0.4,2l9.4,0c2.8,0 5,-2.2 5,-5s-2.2,-5 -5,-5z"/>
 </g>
</svg>